#N canvas 1002 261 687 300 10;
#X obj 8 108 osc~;
#X obj 8 136 *~ 0.3;
#X obj 8 33 unpack f;
#X obj 8 8 r sample_event;
#X obj 8 189 throw~ Master_left;
#X obj 160 190 throw~ Master_right;
#X obj 8 84 mtof~;
#X obj 8 58 + 60;
#X connect 0 0 1 0;
#X connect 1 0 4 0;
#X connect 1 0 5 0;
#X connect 2 0 7 0;
#X connect 3 0 2 0;
#X connect 6 0 0 0;
#X connect 7 0 6 0;
